#!OML:ASF F:\VICON\USERDATA\INSTALL\rory3\rory3.ASF
:FULLY-SPECIFIED
:DEGREES
65
root -0.8319784343261221 17.207068605683986 9.9095433094363 3.554042726651079 3.5939493420632953 2.8056209938366896
lfemur -8.98151617292976 -1.0253230766119135 -30.99966297707279
ltibia 35.30538660815867
lfoot -22.060291288550683 -1.17016866841273
ltoes -10.457962826324685
rfemur -29.02498299723174 -9.326303080155139 13.074387946755285
rtibia 94.39995200772896
rfoot 14.077262975796497 -3.970790540651112
rtoes 9.805219237586913
lowerback 1.0 -0.5729698647793438 -5.803028683176528
upperback 0.1170629376688207 0.04425745606324516 -2.1187921302706076
thorax -11.053952822943652 -0.08075096343131566 2.6887572751473034
lowerneck -24.641513809520923 -3.9963651076883 -1.8173325506742766
upperneck 6.799792011746236 -6.007622782439121 5.229030010894675
head 6.441400497163039 -2.115167478928132 1.4052531844321463
lclavicle 1.8146835953676714e-14 -2.861028530762842e-14
lhumerus -35.99868397009121 -16.315466627445144 93.72998465301481
lradius 119.90691643028826
lwrist 44.239340148692214
lhand -25.868967639442896 -0.6435146573065962
lfingers nan
lthumb 0.4176968843104625 29.161853755758916
rclavicle 2.1322671940410277e-14 -2.8275453930493193e-14
rhumerus -57.75892649946869 8.61332697699844 -103.8208190574749
rradius 108.67491306483129
rwrist 5.354382189622626
rhand -18.105379416136177 1.0
rfingers nan
rthumb 7.877686123754638 -0.038402140475120916
66
root -0.8546797717934822 17.216695254578205 10.801001551449941 3.407460883413079 2.5585207469230715 2.1994613887324563
lfemur -7.1031482917936675 -0.6052730332908195 -30.479092569769207
ltibia 34.54851074313645
lfoot -22.723527091449615 -0.5251528240089733
ltoes -11.992989150700069
rfemur -31.864581819996523 -8.765767352986096 14.412550701149259
rtibia 93.90560481993141
rfoot 12.204560332644164 -4.289045320759496
rtoes 3.644637400586554
lowerback 1.0 -0.31439242109049714 -5.616621552931831
upperback 0.13306147779773136 0.292485058526485 -1.7942703969289029
thorax -11.228385790636707 0.06945028317835461 2.780031412753355
lowerneck -25.370641280127558 -3.955306653474464 -1.860545979633855
upperneck 7.186032475843195 -6.032518358832608 5.135211582936515
head 6.6897447651302295 -2.1060317409132336 1.3351107223226053
lclavicle 1.4214497067384547e-14 2.0562661917028017e-14
lhumerus -34.05484370612751 -16.709944213401624 93.45920563065836
lradius 120.54567222955251
lwrist 45.11414634516942
lhand -24.525722860927644 0.2040913245759977
lfingers nan
lthumb 1.7177398123083076 30.018544759423246
rclavicle 1.698863599221217e-14 2.088494012772369e-14
rhumerus -58.395097586280684 8.675728122033487 -103.34929239804585
rradius 109.15412855771727
rwrist 5.53730024018105
rhand -17.14546591064774 1.0
rfingers nan
rthumb 8.786761122934152 0.6255402974583699
67
root -0.878646203643088 17.21615694736127 11.311839863866247 3.244666157078832 1.807179083299405 1.3526257118115241
lfemur -5.35781259230774 -0.18066548036883895 -29.54855403262363
ltibia 33.76744897985562
lfoot -23.080143033198727 0.23948574912262544
ltoes -13.77904711742229
rfemur -34.76591363146478 -8.211884959792243 16.312415538675022
rtibia 92.60083651605407
rfoot 12.405721689117478 -4.0668413505259
rtoes 4.506728474878372
lowerback 1.0 -0.14351960586144907 -5.23849891860059
upperback 0.13833921282780393 0.4736615558277504 -1.3897426348423656
thorax -11.224669968888488 0.1830093727495256 2.857838138798646
lowerneck -25.68405723011374 -3.8674574985873655 -1.9185318478695572
upperneck 7.553651847448522 -5.988508938807757 5.109077807277696
head 6.908875516753527 -2.05929484942898 1.3077410646708576
lclavicle 1.5269368378348398e-14 2.794381312845903e-15
lhumerus -32.63378722802351 -16.77962998565036 93.31073456033891
lradius 121.31840173754125
lwrist 44.075048376672
lhand -22.434494197804135 1.5262242571818323
lfingers nan
lthumb 3.730621616036351 31.377420766664876
rclavicle 1.7824564631504784e-14 2.7322043929574885e-15
rhumerus -59.03442814186565 8.785846338526762 -103.05504112825588
rradius 109.83193402139419
rwrist 4.117055637940123
rhand -16.12551264275856 1.0
rfingers nan
rthumb 9.77382653164925 1.6514616377331697
68
root -0.8684705934802587 17.208908807325273 11.897588245698184 3.1523289962460694 1.7487800895559724 0.852564868856792
lfemur -3.475166116142308 -0.10110612593223267 -28.937983060982916
ltibia 32.74152907136727
lfoot -22.499723928698362 0.31790859378292247
ltoes -14.312877629574537
rfemur -37.36193812960691 -8.166504155500423 17.565676888155895
rtibia 90.5643926010941
rfoot 11.389872193290646 -3.79625201909566
rtoes 4.491297562611116
lowerback 1.0 -0.16978271819959356 -4.744400562332083
upperback 0.043113895000002955 0.3875009461564284 -1.044206752823438
thorax -11.530507452936284 0.16990366338540414 2.933964372253963
lowerneck -25.651328593899425 -3.6800503228801134 -1.9888874541994779
upperneck 7.779914419050931 -5.785210365399074 5.013134572877188
head 7.0263660579472065 -1.9487367780025597 1.2920162387169283
lclavicle 1.6046780277331805e-14 -1.1803125353228888e-14
lhumerus -31.7704002209235 -16.55760000258835 93.3686308891735
lradius 122.33781200176232
lwrist 43.136082253306895
lhand -22.918377083392997 2.598855869165136
lfingers nan
lthumb 3.265680265969938 32.44540525589093
rclavicle 1.858948586939255e-14 -1.2037137017601613e-14
rhumerus -59.790925962185966 9.074703976464171 -102.68481710682896
rradius 110.88225145698297
rwrist 2.143075829870675
rhand -15.493020812465845 1.0
rfingers nan
rthumb 10.394421373561496 2.897694979257663
69
root -0.8378151001050901 17.21226269750819 12.508975293646184 3.140149004270187 2.13893939543786 0.9082840497303457
lfemur -1.4543974032005274 -0.422265139750914 -28.94174238054778
ltibia 31.460661414455352
lfoot -20.90491196324135 -0.12811763504264384
ltoes -16.450927367626456
rfemur -39.524571913034734 -8.569628192267349 17.86044084014672
rtibia 87.96765922870755
rfoot 9.717707900361814 -3.162778685771792
rtoes 4.803998398838775
lowerback 1.0 -0.3151540491088768 -4.569731057410469
upperback -0.1563557427835115 0.07166832658329436 -0.8738073540057336
thorax -11.969195025817445 0.06830292509926911 3.0409813935822627
lowerneck -24.97798622643837 -3.4632851880702686 -2.0311903647469123
upperneck 7.554034144443543 -5.527763364251403 4.930901714957902
head 6.8876611821572915 -1.8219533862949195 1.2950573411005841
lclavicle 1.9714724915473166e-14 2.6627232550933485e-14
lhumerus -31.183679082091267 -16.29407368934446 93.43647730345235
lradius 123.55631269152671
lwrist 43.17252679118576
lhand -23.516661312516515 0.8864364852558774
lfingers nan
lthumb 2.6848054085375734 30.700956390330433
rclavicle 2.219244710158873e-14 2.6590235666398787e-14
rhumerus -60.65681625066816 9.549528461653027 -102.3590099216237
rradius 111.92055232323175
rwrist -0.07997975338121854
rhand -15.342896870459441 1.0
rfingers nan
rthumb 10.563002980891419 3.147556732243782
70
root -0.7996299501016222 17.24229713513259 13.250940757694686 3.2512811811671183 2.691172714708734 1.2195139952209506
lfemur 0.6223079513297272 -0.8548616623175231 -29.20772837600878
ltibia 30.00708350150348
lfoot -18.54788195486055 -1.5086318558752154
ltoes -17.69452447336257
rfemur -41.28065746462978 -9.111177108378378 17.743590602897065
rtibia 84.81049252363131
rfoot 7.352966444801061 -2.278398017592723
rtoes -0.9461109326355279
lowerback 1.0 -0.5361829861306557 -4.65378804551559
upperback -0.10816920749362458 -0.37766286528352255 -0.6678469864705365
thorax -11.519759711148817 -0.07889637944568889 3.2431310175156374
lowerneck -25.32707055686226 -3.2011627549137747 -2.1601242249805286
upperneck 7.335915299034839 -5.140282190643023 4.789617728310013
head 6.8626315968097265 -1.638302691826552 1.3036431013211272
lclavicle 3.3065494814903376e-14 1.563272887266266e-14
lhumerus -30.527285315022656 -15.867906091207765 93.51749053400432
lradius 124.87318705922128
lwrist 44.1043181102781
lhand -24.462181207343043 -0.5080892180075136
lfingers nan
lthumb 1.781252818728258 29.291251177947633
rclavicle 3.571491436961714e-14 1.5948143404685087e-14
rhumerus -61.16428840587803 10.269474923670186 -101.61758970186251
rradius 113.00093722203067
rwrist -1.9443776279366407
rhand -14.972749638818074 1.0
rfingers nan
rthumb 10.921040905067997 3.058132542236067
71
root -0.7572447909648626 17.29663241949486 14.012233785075743 3.2719756389914325 3.3040589360388646 2.1410731667331575
lfemur 2.8518277579081293 -1.3127927870516687 -30.131783596123125
ltibia 28.47890029808673
lfoot -15.512709938477798 -2.82788813530585
ltoes -19.418249196903286
rfemur -42.24899805915096 -9.737204888588124 16.668818573315043
rtibia 81.26467775071549
rfoot 4.01334162365267 -1.162799346543979
rtoes -13.839203516869311
lowerback 1.0 -0.7564924419692254 -5.1729145298664365
upperback 0.14427668741039912 -0.9205106917219372 -0.6802182293689556
thorax -10.68473847308019 -0.2820743562623848 3.531161373696042
lowerneck -26.032455303280017 -2.907906779534618 -2.354613647378215
upperneck 7.258226971039587 -4.696143566074343 4.781046170206736
head 6.958405471084328 -1.414319636004971 1.3758129256837313
lclavicle 1.0881049433889522e-14 3.450332087548735e-15
lhumerus -30.044510855228857 -15.43473764737004 93.57107654008024
lradius 126.21802318451044
lwrist 45.86365422933926
lhand -26.281943598515838 -1.7940783476283582
lfingers nan
lthumb 0.04534170660413839 28.005262313290356
rclavicle 1.3733845104784852e-14 3.912491279266166e-15
rhumerus -61.47925476416057 10.9049483537178 -100.9376487089123
rradius 113.98605959699884
rwrist -3.001581246036489
rhand -15.00882157576977 1.0
rfingers nan
rthumb 10.877734998845417 3.666033601564443
72
root -0.744681276395739 17.353510063041295 15.065927045477471 3.3098022180394966 3.4832882001552976 2.367146042544629
lfemur 4.802882811408331 -1.471019395045246 -30.218199996204483
ltibia 26.97054247560967
lfoot -12.16987027244626 -4.294040271506926
ltoes -22.483026980773538
rfemur -43.29926371881622 -9.776681343775156 16.73200544465903
rtibia 77.12537360500603
rfoot 3.4908423771018793 0.10273051565387448
rtoes -12.184973926450501
lowerback 1.0 -0.9019559154695513 -5.226645787573916
upperback 0.06514127126356639 -1.279200323636867 -0.562822035002321
thorax -10.34188150160068 -0.4435928843670492 3.80863921927966
lowerneck -24.64519646655222 -2.654091683513827 -2.4323767346198073
upperneck 6.532849889513255 -4.337783775143719 4.788934467292805
head 6.536602781637923 -1.2523447576757796 1.4464026870094924
lclavicle 2.1324734849106122e-14 1.2130324185801947e-14
lhumerus -30.04327135724637 -15.176925408975086 93.60604499847354
lradius 127.66986235241168
lwrist 48.93040158142962
lhand -26.43331979696395 -1.739552191637577
lfingers nan
lthumb -0.1339668651601551 28.073601984918202
rclavicle 2.434321691486069e-14 1.2587056817958286e-14
rhumerus -62.23731494250804 11.100047683251264 -100.67688082747986
rradius 115.17582599190749
rwrist -4.921847976587014
rhand -14.667781251093288 1.0
rfingers nan
rthumb 11.194029446047004 4.8934685173311525
